# xmcd CD database file
#
# Track frame offsets:
#	150
#	15605
#	38175
#	55072
#	76895
#	96777
#	108255
#	121662
#	135527
#	150117
#	161755
#	178057
#	191455
#	212947
#	224427
#	238640
#	252920
#	287105
#	300805
#	311802
#	323927
#
# Disc length: 4457 seconds
#
# Revision: 0
# Processed by: cddbd v1.5.1PL0 Copyright (c) Steve Scherf et al.
# Submitted via: CDex 1.51
#
DISCID=17116715
DTITLE=Paul Weller - Sessions 96/97
DYEAR=1996
DGENRE=Rhythmic Soul
TTITLE0=Peacock Suit (acoustic)
TTITLE1=Porcelain Gods (acoustic)
TTITLE2=All the Pictures on the Wall (acoustic)
TTITLE3=Foot of the Mountain (acoustic)
TTITLE4=Up in Suze's Room (acoustic)
TTITLE5=The Circle (acoustic)
TTITLE6=Driving Nowhere (acoustic)
TTITLE7=I Shall Be Released (acoustic)
TTITLE8=Circles
TTITLE9=I Forgot to be Your Lover
TTITLE10=Brushed
TTITLE11=Peacock Suit
TTITLE12=Up in Suze's Room
TTITLE13=Friday Street
TTITLE14=Mermaids
TTITLE15=The Poacher (w/ Ocean Colour Scene)
TTITLE16=Heavy Soul (Parts 1 and 2)
TTITLE17=The Man In the Corner Shop (live Royal Albert Hall '92)
TTITLE18=A Town Called Malice (Live LA '92)
TTITLE19=A Man of Great Promise (White City Studios '95)
TTITLE20=Down the Seine (Marylebone Studios '95)
EXTD=YEAR: 1996
EXTT0=
EXTT1=
EXTT2=
EXTT3=
EXTT4=
EXTT5=
EXTT6=
EXTT7=
EXTT8=
EXTT9=
EXTT10=
EXTT11=
EXTT12=
EXTT13=
EXTT14=
EXTT15=
EXTT16=
EXTT17=
EXTT18=
EXTT19=
EXTT20=
PLAYORDER=
